<svg xmlns="http://www.w3.org/2000/svg" version="1.1" xmlns:xlink="http://www.w3.org/1999/xlink" xmlns:svgjs="http://svgjs.dev/svgjs" width="1000" height="623" viewBox="0 0 1000 623"><g transform="matrix(1,0,0,1,-0.6060606060606233,0.2522267206477409)"><svg viewBox="0 0 396 247" data-background-color="#fdf8f1" preserveAspectRatio="xMidYMid meet" height="623" width="1000" xmlns="http://www.w3.org/2000/svg" xmlns:xlink="http://www.w3.org/1999/xlink"><g id="tight-bounds" transform="matrix(1,0,0,1,0.2400000000000091,-0.09999999999999432)"><svg viewBox="0 0 395.52 247.2" height="247.2" width="395.52"><g><svg></svg></g><g><svg viewBox="0 0 395.52 247.2" height="247.2" width="395.52"><g transform="matrix(1,0,0,1,75.54432000000001,73.9925799320512)"><svg viewBox="0 0 244.43135999999996 99.2148401358976" height="99.2148401358976" width="244.43135999999996"><g><svg viewBox="0 0 402.739607334888 163.47225559815683" height="99.2148401358976" width="244.43135999999996"><g transform="matrix(1,0,0,1,158.308247334888,0)"><svg viewBox="0 0 244.43135999999998 163.47225559815683" height="163.47225559815683" width="244.43135999999998"><g id="textblocktransform"><svg viewBox="0 0 244.43135999999998 163.47225559815683" height="163.47225559815683" width="244.43135999999998" id="textblock"><g><rect width="244.43135999999998" height="147.78373743708087" fill="none" stroke-width="5.538745477134433" stroke="#fa4238" data-fill-palette-color="none" data-stroke-palette-color="tertiary"></rect><rect width="244.43135999999998" height="72.79117327083284" y="147.78373743708087" fill="#fa4238" data-fill-palette-color="tertiary"></rect></g><g><svg viewBox="0 0 244.43135999999998 146.78373743708087" height="146.78373743708087" width="244.43135999999998"><g transform="matrix(1,0,0,1,14.499333709776002,14.499333709776002)"><svg width="215.432692580448" viewBox="3.75 -34.5 85.04 46.5" height="117.78507001752887" data-palette-color="#fa4238"><path d="M19.7 0L7.05 0 7.2-0.75 12.3-1.75 17.6-31.5 7.7-31.5 4.5-24.15 3.75-24.15 5.3-33 33.05-33 31.5-24.15 30.75-24.15 30.25-31.5 20.3-31.5 15-1.75 19.85-0.75 19.7 0ZM40.4-31.1L40.4-31.1Q39.7-31.1 39.2-31.6 38.7-32.1 38.7-32.8L38.7-32.8Q38.7-33.5 39.2-34 39.7-34.5 40.4-34.5L40.4-34.5Q41.1-34.5 41.6-34 42.1-33.5 42.1-32.8L42.1-32.8Q42.1-32.1 41.6-31.6 41.1-31.1 40.4-31.1ZM36.45 0.5L36.45 0.5Q35.25 0.5 34.7-0.6 34.15-1.7 34.65-4.75L34.65-4.75 37.5-20.85 34.35-21.3 34.35-21.8 39.45-23 40.1-23 37.05-5.95Q36.65-3.55 36.8-2.68 36.95-1.8 37.75-1.8L37.75-1.8Q39.8-1.8 41.6-5.9L41.6-5.9 42.3-5.65Q41-2.4 39.5-0.95 38 0.5 36.45 0.5ZM48.35 0L46.1 0 49.8-20.85 46.65-21.3 46.65-21.8 51.75-23 52.15-23 51.4-17.45 51.55-17.45Q54.2-20.4 56.1-21.7 58-23 60.05-23L60.05-23Q62.55-23 63.67-21.18 64.8-19.35 64.15-15.6L64.15-15.6 62.4-5.95Q61.95-3.55 62.12-2.68 62.3-1.8 63.1-1.8L63.1-1.8Q65.15-1.8 66.95-5.9L66.95-5.9 67.65-5.65Q66.35-2.4 64.85-0.95 63.35 0.5 61.8 0.5L61.8 0.5Q60.6 0.5 60.05-0.6 59.5-1.7 60-4.75L60-4.75 61.95-16.05Q62.3-18.3 61.7-19.75 61.1-21.2 59.05-21.2L59.05-21.2Q57.05-21.2 55.05-19.7 53.05-18.2 51.2-16.15L51.2-16.15 48.35 0ZM67.39 12L67.39 12Q65.89 12 65.89 10.55L65.89 10.55 65.89 9.55 66.04 9.45 68.64 9.45Q69.54 9.45 70.19 9.28 70.84 9.1 71.44 8.53 72.04 7.95 72.87 6.75 73.69 5.55 74.99 3.5L74.99 3.5 77.74-0.95 73.24-20.8 70.04-21.25 70.04-21.75 74.99-23 75.19-23 79.29-3.75 79.44-3.75 83.74-10.7Q85.29-13.2 86.14-15.18 86.99-17.15 86.99-18.5L86.99-18.5Q86.99-19.4 86.69-19.93 86.39-20.45 85.89-20.75L85.89-20.75 85.09-21.2 85.09-21.35 85.89-22.45Q86.29-23 86.69-23L86.69-23Q87.59-23 88.19-22.05 88.79-21.1 88.79-19.7L88.79-19.7Q88.79-18.7 88.24-17.03 87.69-15.35 85.94-12.55L85.94-12.55 75.64 3.95Q74.94 5.1 74.52 5.85 74.09 6.6 73.59 7.35 73.09 8.1 72.19 9.15L72.19 9.15Q69.79 12 67.39 12Z" opacity="1" transform="matrix(1,0,0,1,0,0)" fill="#fa4238" class="wordmark-text-0" data-fill-palette-color="primary" id="text-0"></path></svg></g></svg></g><g transform="matrix(1,0,0,1,0,146.78373743708087)"><svg viewBox="0 0 143.50565145599998 16.68851816107597" height="16.68851816107597" width="143.50565145599998"><g transform="matrix(1,0,0,1,20,3.2)"><svg width="103.50565145599998" viewBox="1.9 -35.6 458.71000000000004 45.6" height="10.288518161075967" data-palette-color="#fdf8f1"><path d="M10.2-14.2L10.2-14.2 9.45-12.1 22.5-12.1 21.75-14.25 16.05-31.1Q15.4-29.1 10.2-14.2ZM8.5-9.35L5.25 0 1.9 0 13.8-33.7 18.3-33.7 29.95 0 26.6 0 23.4-9.35 8.5-9.35ZM54.8-17.7L54.8 0 51.75 0 51.75-16.75Q51.75-19.7 50.25-21.25 48.75-22.8 46.3-22.8L46.3-22.8Q43.2-22.8 40.95-20.43 38.7-18.05 38.7-14L38.7-14 38.7 0 35.65 0 35.65-25.35 38.7-25.35 38.7-21Q41.05-25.75 46.75-25.75L46.75-25.75Q50.4-25.75 52.6-23.5 54.8-21.25 54.8-17.7L54.8-17.7ZM93.49-8.7L93.49-8.7Q93.49-4.3 90.54-1.98 87.59 0.35 82.99 0.35L82.99 0.35Q77.79 0.35 74.14-1.85L74.14-1.85 74.14-5.3Q75.64-4.15 78.02-3.4 80.39-2.65 82.84-2.65L82.84-2.65Q86.39-2.65 88.37-4.2 90.34-5.75 90.34-8.65L90.34-8.65Q90.34-10.85 88.84-12.23 87.34-13.6 84.49-14.85L84.49-14.85Q84.09-15.05 82.74-15.63 81.39-16.2 80.84-16.45 80.29-16.7 79.14-17.3 77.99-17.9 77.47-18.35 76.94-18.8 76.14-19.55 75.34-20.3 74.99-21.05 74.64-21.8 74.34-22.83 74.04-23.85 74.04-25L74.04-25Q74.04-29.25 77.09-31.63 80.14-34 84.54-34L84.54-34Q88.74-34 91.54-32.5L91.54-32.5 91.54-29.05Q90.34-29.85 88.39-30.4 86.44-30.95 84.59-30.95L84.59-30.95Q81.24-30.95 79.24-29.38 77.24-27.8 77.24-25.2L77.24-25.2Q77.24-23.85 77.77-22.8 78.29-21.75 79.54-20.88 80.79-20 81.72-19.53 82.64-19.05 84.54-18.25L84.54-18.25Q86.29-17.5 87.19-17.07 88.09-16.65 89.49-15.75 90.89-14.85 91.62-13.98 92.34-13.1 92.92-11.73 93.49-10.35 93.49-8.7ZM103.79-25.35L103.79 0 100.74 0 100.74-25.35 103.79-25.35ZM103.77-34.98Q104.39-34.35 104.39-33.45 104.39-32.55 103.77-31.95 103.14-31.35 102.24-31.35 101.34-31.35 100.74-31.95 100.14-32.55 100.14-33.45 100.14-34.35 100.74-34.98 101.34-35.6 102.24-35.6 103.14-35.6 103.77-34.98ZM144.64-17.7L144.64 0 141.59 0 141.59-16.75Q141.59-22.8 136.29-22.8L136.29-22.8Q133.69-22.8 131.66-20.4 129.64-18 129.64-14L129.64-14 129.64 0 126.59 0 126.59-16.75Q126.59-22.8 121.29-22.8L121.29-22.8Q118.69-22.8 116.66-20.4 114.64-18 114.64-14L114.64-14 114.64 0 111.59 0 111.59-25.35 114.64-25.35 114.64-21.2Q116.79-25.75 121.74-25.75L121.74-25.75Q127.84-25.75 129.24-20.75L129.24-20.75Q131.59-25.75 136.74-25.75L136.74-25.75Q140.74-25.75 142.69-23.53 144.64-21.3 144.64-17.7L144.64-17.7ZM154.99-3.8L154.99 10 151.94 10 151.94-25.35 154.99-25.35 154.99-21.65Q157.64-25.75 162.84-25.75L162.84-25.75Q167.94-25.75 170.79-22.03 173.64-18.3 173.64-12.95L173.64-12.95Q173.64-7.05 170.59-3.33 167.54 0.4 162.74 0.4L162.74 0.4Q157.79 0.4 154.99-3.8L154.99-3.8ZM154.99-12.55L154.99-12.55Q154.99-9.75 155.76-7.68 156.54-5.6 157.76-4.53 158.99-3.45 160.21-2.98 161.44-2.5 162.64-2.5L162.64-2.5Q166.04-2.5 168.24-5.23 170.44-7.95 170.44-13L170.44-13Q170.44-17.35 168.31-20.1 166.19-22.85 162.94-22.85 159.69-22.85 157.34-20.48 154.99-18.1 154.99-12.55ZM182.93-35.35L182.93 0 179.88 0 179.88-35.35 182.93-35.35ZM208.88-4.35L208.88-1.25Q205.88 0.25 201.88 0.25L201.88 0.25Q196.23 0.25 192.71-3.28 189.18-6.8 189.18-12.55L189.18-12.55Q189.18-18.65 192.28-22.15 195.38-25.65 200.33-25.65L200.33-25.65Q204.98-25.65 207.73-22.6 210.48-19.55 210.48-14L210.48-14Q210.48-12.3 210.28-11.3L210.28-11.3 192.38-11.3Q192.73-7.1 195.28-4.88 197.83-2.65 202.03-2.65L202.03-2.65Q206.33-2.65 208.88-4.35L208.88-4.35ZM200.23-22.8L200.23-22.8Q197.03-22.8 194.88-20.55 192.73-18.3 192.38-14.1L192.38-14.1 207.33-14.1 207.33-15.25Q207.33-18.7 205.41-20.75 203.48-22.8 200.23-22.8ZM245.18-18L245.18-15.15 232.08-15.15 232.08 0 228.98 0 228.98-33.7 246.93-33.7 246.93-30.85 232.08-30.85 232.08-18 245.18-18ZM256.02-14.15L256.02 0 252.97 0 252.97-25.35 256.02-25.35 256.02-21.05Q258.12-25.65 263.12-25.65L263.12-25.65Q263.47-25.65 264.37-25.55L264.37-25.55 264.37-22.45Q263.37-22.75 262.37-22.75L262.37-22.75Q259.67-22.75 257.85-20.08 256.02-17.4 256.02-14.15L256.02-14.15ZM276.02-2.55L276.02-2.55Q279.02-2.55 280.82-4.2 282.62-5.85 282.62-8.4L282.62-8.4 282.62-12.05 277.67-12.05Q274.12-12.05 272.37-10.68 270.62-9.3 270.62-7.25L270.62-7.25Q270.62-5.15 272-3.85 273.37-2.55 276.02-2.55ZM282.62 0L282.62-2.95Q280.52 0.25 275.32 0.25L275.32 0.25Q271.82 0.25 269.6-1.83 267.37-3.9 267.37-7.15L267.37-7.15Q267.37-10.8 270.2-12.83 273.02-14.85 277.67-14.85L277.67-14.85 282.62-14.85 282.62-16Q282.62-19.4 281.17-21.13 279.72-22.85 276.32-22.85L276.32-22.85Q272.37-22.85 269.22-20.7L269.22-20.7 269.22-24Q272.12-25.75 276.37-25.75L276.37-25.75Q285.67-25.75 285.67-16L285.67-16 285.67 0 282.62 0ZM326.02-17.7L326.02 0 322.97 0 322.97-16.75Q322.97-22.8 317.67-22.8L317.67-22.8Q315.07-22.8 313.04-20.4 311.02-18 311.02-14L311.02-14 311.02 0 307.97 0 307.97-16.75Q307.97-22.8 302.67-22.8L302.67-22.8Q300.07-22.8 298.04-20.4 296.02-18 296.02-14L296.02-14 296.02 0 292.97 0 292.97-25.35 296.02-25.35 296.02-21.2Q298.17-25.75 303.12-25.75L303.12-25.75Q309.22-25.75 310.62-20.75L310.62-20.75Q312.97-25.75 318.12-25.75L318.12-25.75Q322.12-25.75 324.07-23.53 326.02-21.3 326.02-17.7L326.02-17.7ZM351.47-4.35L351.47-1.25Q348.47 0.25 344.47 0.25L344.47 0.25Q338.82 0.25 335.29-3.28 331.77-6.8 331.77-12.55L331.77-12.55Q331.77-18.65 334.87-22.15 337.97-25.65 342.92-25.65L342.92-25.65Q347.57-25.65 350.32-22.6 353.07-19.55 353.07-14L353.07-14Q353.07-12.3 352.87-11.3L352.87-11.3 334.97-11.3Q335.32-7.1 337.87-4.88 340.42-2.65 344.62-2.65L344.62-2.65Q348.92-2.65 351.47-4.35L351.47-4.35ZM342.82-22.8L342.82-22.8Q339.62-22.8 337.47-20.55 335.32-18.3 334.97-14.1L334.97-14.1 349.92-14.1 349.92-15.25Q349.92-18.7 347.99-20.75 346.07-22.8 342.82-22.8ZM371.16-8.3L368.81 0 364.71 0 356.96-25.35 360.31-25.35 362.81-16.95Q364.21-12.25 365.19-8.78 366.16-5.3 366.46-4.2L366.46-4.2 366.71-3.05Q367.61-6.3 370.71-17L370.71-17 373.11-25.35 376.71-25.35 379.21-17 383.31-2.95Q384.11-5.9 387.56-17L387.56-17 390.16-25.35 393.36-25.35 385.36 0 381.26 0 378.81-8.3 374.91-21.8Q374.06-18.65 371.16-8.3L371.16-8.3ZM420.66-12.55L420.66-12.55Q420.66-6.9 417.49-3.23 414.31 0.45 408.76 0.45L408.76 0.45Q403.41 0.45 400.26-3.25 397.11-6.95 397.11-12.55L397.11-12.55Q397.11-18.1 400.36-21.9 403.61-25.7 408.76-25.7L408.76-25.7Q414.41-25.7 417.54-21.98 420.66-18.25 420.66-12.55ZM400.31-12.55L400.31-12.55Q400.31-8.4 402.64-5.43 404.96-2.45 408.76-2.45L408.76-2.45Q412.91-2.45 415.19-5.38 417.46-8.3 417.46-12.55L417.46-12.55Q417.46-16.95 415.31-19.88 413.16-22.8 408.76-22.8L408.76-22.8Q404.81-22.8 402.56-19.8 400.31-16.8 400.31-12.55ZM429.76-14.15L429.76 0 426.71 0 426.71-25.35 429.76-25.35 429.76-21.05Q431.86-25.65 436.86-25.65L436.86-25.65Q437.21-25.65 438.11-25.55L438.11-25.55 438.11-22.45Q437.11-22.75 436.11-22.75L436.11-22.75Q433.41-22.75 431.58-20.08 429.76-17.4 429.76-14.15L429.76-14.15ZM445.46-35.35L445.46 0 442.41 0 442.41-35.35 445.46-35.35ZM460.26-25.35L449.91-13.3 460.61 0 456.81 0 446.21-13.3 456.51-25.35 460.26-25.35Z" opacity="1" transform="matrix(1,0,0,1,0,0)" fill="#fdf8f1" class="slogan-text-1" data-fill-palette-color="quaternary" id="text-1"></path></svg></g></svg></g></svg></g></svg></g><g transform="matrix(1,0,0,1,0,34.152674947878424)"><svg viewBox="0 0 151.05858048 95.16690570239999" height="95.16690570239999" width="151.05858048"><g><svg xmlns="http://www.w3.org/2000/svg" xmlns:xlink="http://www.w3.org/1999/xlink" version="1.1" x="0" y="0" viewBox="0 17 100 63" enable-background="new 0 0 100 100" xml:space="preserve" height="95.16690570239999" width="151.05858048" class="icon-icon-0" data-fill-palette-color="accent" id="icon-0"><path fill-rule="evenodd" clip-rule="evenodd" d="M0 17v63h100V17H0zM91 70H9V39h82V70z" fill="#fa4238" data-fill-palette-color="accent"></path><path fill-rule="evenodd" clip-rule="evenodd" d="M59.375 53.643v3.125H81.25v-3.125H59.375z" fill="#fa4238" data-fill-palette-color="accent"></path><path fill-rule="evenodd" clip-rule="evenodd" d="M21.875 66.143v-4.861l4.688-6.076-4.688-6.076v-4.861L30 55.205 21.875 66.143z" fill="#fa4238" data-fill-palette-color="accent"></path></svg></g></svg></g></svg></g></svg></g><g><path d="M0 123.6c0-68.262 55.338-123.6 123.6-123.6 49.763 0 92.657 29.408 112.251 71.793h-0.927c-19.536-41.907-62.038-70.952-111.324-70.953-67.798 0-122.76 54.961-122.76 122.76 0 67.798 54.961 122.76 122.76 122.76 49.286 0 91.789-29.045 111.324-70.953l0.927 0c-19.595 42.385-62.489 71.793-112.251 71.793-68.262 0-123.6-55.338-123.6-123.6z" fill="#fa4238" stroke="transparent" data-fill-palette-color="tertiary"></path></g></svg></g><defs></defs></svg><rect width="395.52" height="247.2" fill="none" stroke="none" visibility="hidden"></rect></g></svg></g></svg>